<?xml version="1.0" encoding="iso-8859-1"?>
<!-- Generator: Adobe Illustrator 19.0.0, SVG Export Plug-In . SVG Version: 6.00 Build 0)  -->
<svg xmlns="http://www.w3.org/2000/svg" xmlns:xlink="http://www.w3.org/1999/xlink" version="1.1" id="Layer_1" x="0px" y="0px" viewBox="0 0 512 512" style="enable-background:new 0 0 512 512;" xml:space="preserve" width="512px" height="512px">
<g>
	<g>
		<path d="M256,0C114.841,0,0,114.841,0,256s114.841,256,256,256s256-114.841,256-256S397.159,0,256,0z M256,485.345    C129.539,485.345,26.655,382.461,26.655,256S129.539,26.655,256,26.655S485.345,129.539,485.345,256S382.461,485.345,256,485.345z    " fill="#FFFFFF"/>
	</g>
</g>
<g>
	<g>
		<path d="M338.724,115.087c-6.345-3.732-14.514-1.614-18.244,4.731c-3.732,6.345-1.613,14.514,4.733,18.244    c41.646,24.492,67.517,69.683,67.517,117.937c0,75.394-61.335,136.729-136.729,136.729c-75.393,0-136.729-61.337-136.729-136.729    c0-48.254,25.87-93.445,67.517-117.937c6.345-3.73,8.464-11.899,4.733-18.244c-3.729-6.343-11.898-8.466-18.244-4.731    C123.523,144.346,92.616,198.342,92.616,256c0,90.09,73.293,163.384,163.384,163.384S419.384,346.09,419.384,256    C419.384,198.342,388.476,144.347,338.724,115.087z" fill="#FFFFFF"/>
	</g>
</g>
<g>
	<g>
		<path d="M256,74.832c-7.36,0-13.328,5.967-13.328,13.328V256c0,7.361,5.968,13.328,13.328,13.328    c7.361,0,13.328-5.967,13.328-13.328V88.16C269.328,80.799,263.36,74.832,256,74.832z" fill="#FFFFFF"/>
	</g>
</g>
<g>
</g>
<g>
</g>
<g>
</g>
<g>
</g>
<g>
</g>
<g>
</g>
<g>
</g>
<g>
</g>
<g>
</g>
<g>
</g>
<g>
</g>
<g>
</g>
<g>
</g>
<g>
</g>
<g>
</g>
</svg>
